<svg xmlns="http://www.w3.org/2000/svg" viewBox="0 0 128 128">
  <rect width="128" height="128" rx="26" fill="#16191D"/>
  <g fill="#FFB020">
    <rect x="20" y="20" width="26" height="26" rx="4" fill="none" stroke="#FFB020" stroke-width="6"/>
    <rect x="29" y="29" width="8" height="8"/>
    <rect x="20" y="56" width="10" height="10"/>
    <rect x="36" y="56" width="10" height="10"/>
    <rect x="20" y="72" width="10" height="10"/>
    <rect x="36" y="72" width="10" height="10"/>
  </g>
  <path d="M104 38c0-2.5-.6-4.9-1.7-7l-10.6 10.6-8.3-2.2-2.2-8.3L91.8 20.5a15.4 15.4 0 0 0-19.5 19.8L51.5 61.1a15.4 15.4 0 0 0-19.8 19.5l10.6-10.6 8.3 2.2 2.2 8.3-10.6 10.6a15.4 15.4 0 0 0 19.5-19.8l20.8-20.8A15.4 15.4 0 0 0 104 38z" fill="#FFB020" transform="translate(8 24)"/>
</svg>
